<?xml version="1.0" encoding="utf-8"?>
<!-- Generator: Adobe Illustrator 25.0.1, SVG Export Plug-In . SVG Version: 6.00 Build 0)  -->
<svg version="1.1" id="Layer_1" xmlns="http://www.w3.org/2000/svg" xmlns:xlink="http://www.w3.org/1999/xlink" x="0px" y="0px"
	 viewBox="0 0 512 512" style="enable-background:new 0 0 512 512;" xml:space="preserve">
<style type="text/css">
	.st0{fill-rule:evenodd;clip-rule:evenodd;fill:#A6E7F0;}
	.st1{fill-rule:evenodd;clip-rule:evenodd;fill:#80D261;}
	.st2{fill-rule:evenodd;clip-rule:evenodd;fill:#838383;}
	.st3{fill-rule:evenodd;clip-rule:evenodd;fill:#ACACAC;}
	.st4{fill-rule:evenodd;clip-rule:evenodd;fill:#ECECEC;}
	.st5{fill-rule:evenodd;clip-rule:evenodd;fill:#CECECE;}
	.st6{fill-rule:evenodd;clip-rule:evenodd;fill:#595959;}
	.st7{fill-rule:evenodd;clip-rule:evenodd;fill:#4FC122;}
	.st8{fill-rule:evenodd;clip-rule:evenodd;fill:#6BD9E7;}
</style>
<g>
	<path class="st0" d="M503.9,306.6c-2.6,36.9-14.7,71.3-33.9,100.5c-37.7,57.7-102.9,95.8-176.9,95.8c-45.9,0-88.5-14.7-123.1-39.8
		c-53.4-38.6-88.3-101.5-88.3-172.4l127.6-177.6l96.6-33.1c25,1.5,48.7,7.3,70.6,16.7c6.9,2.9,13.5,6.3,20,9.9
		c64.5,36.2,108,105.3,108,184.6C504.4,296.5,504.3,301.6,503.9,306.6L503.9,306.6z"/>
	<path class="st1" d="M396.4,106.8c64.5,36.2,108,105.3,108,184.6c0,5.1-0.2,10.2-0.5,15.3c-4.8,32.2-60.5,29.1-63.5,1.1
		c-2.7-25.9-26.6-26.5-37.5-27.6c-27-2.7-39.3-22.1-4.8-67.4c28.7-37.8-76.6-76.1-21.8-115.8C383.2,99.8,389.9,103.1,396.4,106.8
		L396.4,106.8z"/>
	<path class="st2" d="M312,153.5l13.2,11.8c6.7,6,7.4,16.4,1.4,23.2L294,225.2L269.1,207l1.6-31.6l18.2-20.4
		C294.8,148.1,305.3,147.5,312,153.5L312,153.5z"/>
	<path class="st3" d="M270.7,175.3l23.3,49.9l10.2,21.9c7.6,16.2,2.1,32.5-3.9,39.4l-11.8,13.2c-8.9,10-16.2,7-23.4-3.8l-68.7-101.6
		l9.7-45.8l48.7-7.1L270.7,175.3z"/>
	<path class="st3" d="M145.3,240.6l25.3,50.9c6.2,12.5,1.6,25.4-3.1,30.7l-6.5,7.3c-6.9,7.8-12.7,5.5-18.3-3l-40.3-47.1l9.5-27.5
		L145.3,240.6z"/>
	<path class="st3" d="M48,182.4l52.6,18.5l-0.2,36.1l-32.9,10.5l-51-33.3c-9.1-4.5-12-10-5.1-17.8l6.5-7.3
		C22.6,183.8,34.8,177.8,48,182.4L48,182.4z"/>
	<path class="st1" d="M352.6,401.7c18.8-31.3,76.8-38.4,117.4,5.5c-37.7,57.7-102.9,95.8-176.9,95.8c-45.9,0-88.5-14.7-123.1-39.8
		c-1.9-58,44.9-73,82.6-41.8C268.8,434.8,328.8,441.2,352.6,401.7L352.6,401.7z"/>
	<path class="st2" d="M143.4,9.1c3.9,0,7.8,1.3,10.9,4.1L167.5,25c6.8,6,7.4,16.5,1.4,23.2l-18.1,20.4H112L98.5,51.3l32.6-36.7
		C134.3,10.9,138.8,9.1,143.4,9.1L143.4,9.1z"/>
	<path class="st3" d="M98.5,51.3l52.3,17.3l35.6,11.8l-6.3,46l-39.3,18.2L31.7,88.3c-11.6-5.8-15.4-12.8-6.5-22.8L37,52.2
		c6-6.8,21.6-14.1,38.6-8.5L98.5,51.3z"/>
	<path class="st4" d="M248.9,19.5c17.5-5.2,40.7-8.7,51.7,1.3c11.1,9.8,10.4,33.2,7.3,51.2c-0.5,2.7-1.1,5.4-2,8.2
		c-4.1,12.7-12.8,26.4-27.5,39.8l-23.5,21.3l-58.4,52.9l-94,85.1l-4,3.8c-5.7,4.7-11.5,7.1-16.8,7.7c-17.8,1.8-30.2-17.5-17.7-38.3
		l3.5-5l73.2-102.9l45.6-64.2l18.4-25.8C218.8,34.8,234.3,23.9,248.9,19.5L248.9,19.5z"/>
	<path class="st5" d="M235.3,122l-58.4,52.9l-94,85.1l-4,3.8c-5.7,4.7-11.5,7.1-16.8,7.7c-1.1,0.1-2.1,0.1-3.2,0.1
		c1.1,12,10.7,20.5,22.7,19.2c5.3-0.5,11.1-2.9,16.8-7.7l4-3.8l94-85.1l58.4-52.9l23.5-21.3c14.7-13.5,23.4-27.1,27.5-39.8
		c0.9-2.8,1.6-5.5,2-8.2c3.1-18,3.9-41.4-7.3-51.2c-3.1-2.8-7.3-4.6-12-5.5c2.8,11.1,1.8,25.4-0.3,37.4c-0.5,2.7-1.1,5.4-2,8.2
		c-4.1,12.7-12.8,26.4-27.5,39.8L235.3,122z"/>
	<path class="st2" d="M279.4,282.9l-68.7-101.6l-14.3,12.9l68.7,101.6c7.1,10.8,14.5,13.8,23.4,3.8l6.4-7.2
		C289.4,294.2,284.3,290.4,279.4,282.9L279.4,282.9z"/>
	<path class="st6" d="M314.9,178.1l-28.1,31.7l7.2,15.5l32.6-36.7c6-6.8,5.4-17.2-1.4-23.2l-11.6-10.4v0
		C320.3,161,320.9,171.4,314.9,178.1L314.9,178.1z"/>
	<path class="st6" d="M134.2,63l16.5,5.6l18.1-20.4c6-6.7,5.4-17.2-1.4-23.2l-9.1-8.1c6.7,6,4.1,15.3-2,22L134.2,63z"/>
	<path class="st2" d="M151.1,129.9L42.2,73.5C34.1,69.5,29.8,64.8,31,59l-5.8,6.5c-8.9,10-5.1,17,6.5,22.8l108.9,56.3L151.1,129.9z"
		/>
	<path class="st2" d="M155,315.4l-40.3-47.1l-12.2,11.1l40.3,47.1c5.6,8.5,11.3,10.8,18.3,3l5.8-6.5
		C162.7,324,158.8,321.1,155,315.4L155,315.4z"/>
	<path class="st2" d="M77.1,234l-51-33.3c-6.1-3.1-9.5-6.5-8.9-10.9l-5.9,6.6c-7,7.8-4,13.3,5.1,17.8l51,33.3L77.1,234z"/>
	<path class="st7" d="M504.4,291.4c0-79.3-43.6-148.3-108-184.6c-3.5-1.9-7-3.8-10.6-5.6c34.6,45.8,56,109.3,56,179.5
		c0,9.6-0.4,19-1.2,28.3c4.4,26.9,58.6,29.4,63.3-2.3C504.3,301.6,504.4,296.5,504.4,291.4L504.4,291.4z"/>
	<path class="st8" d="M503.9,306.6c-4.7,31.7-58.9,29.2-63.3,2.3c-2.1,24.8-6.8,48.6-13.9,70.6c15,4.4,30,13.3,43.3,27.6
		C489.2,377.9,501.3,343.5,503.9,306.6z"/>
	<path class="st7" d="M426.8,379.6c-15,47.3-40.6,87.1-72.6,114.4c48.1-14.5,89-45.7,115.9-86.8C456.8,392.9,441.7,384,426.8,379.6
		L426.8,379.6z"/>
</g>
<path d="M512,291.4c0-79.1-42.9-152.4-111.9-191.2c-26.4-14.8-54.9-23.8-84.9-26.8c0,0,0-0.1,0-0.1c3.4-19.6,4.5-45.7-9.7-58.1
	c-14.8-13.3-43.3-7.5-58.9-2.9c-17.6,5.2-34.2,18.3-48.2,37.9l-15.1,21.3L164,65l10.5-11.8c4.2-4.8,6.4-10.9,6-17.4
	c-0.4-6.4-3.2-12.3-8-16.5L159.2,7.5c-4.8-4.2-10.9-6.4-17.3-6c-6.4,0.4-12.3,3.2-16.5,8l-29.3,33l-18.2-6
	c-21.1-7-39.4,2.6-46.6,10.7L19.6,60.5c-5.5,6.2-7.7,12.3-6.5,18.2c1.2,6.5,6.2,11.8,15.2,16.3l101.2,52.3l-31.7,44.6l-47.3-16.6
	c-17-6-32.2,2-38.3,8.8l-6.4,7.3c-4.6,5.2-6.5,10.4-5.5,15.6c1.5,8,9.3,12.2,12.4,13.8l44.2,28.9c-10.2,17.9-5.2,34,4.4,42.3
	c3.3,2.9,7.8,5.2,13,6.2c0.8,26.1,6.2,51.5,16,75.6c1.2,2.9,4,4.7,7,4.7c0.9,0,1.9-0.2,2.8-0.6c3.9-1.6,5.7-6,4.2-9.8
	c-9.2-22.6-14.2-46.5-14.9-71c4-1.3,8.2-3.5,12.4-6.8l35,40.9c1.9,2.9,7,10.1,15.1,10.7c0.4,0,0.7,0,1.1,0c4.9,0,9.5-2.5,13.8-7.3
	l6.5-7.3c6.1-6.9,12.2-22.9,4.2-39.1l-22.7-45.8l40.4-36.6l24.6,36.5c1.5,2.2,3.8,3.3,6.3,3.3c1.5,0,2.9-0.4,4.2-1.3
	c3.5-2.3,4.4-7,2-10.5l-25.9-38.3l45.9-41.6l11.5,24.6c0,0.1,0.1,0.2,0.1,0.3l33.4,71.6c6.5,13.9,1,27-2.7,31.1l-11.8,13.2
	c-2.6,2.9-4.3,3.7-4.9,3.6c-0.9-0.1-3.2-1.5-6.6-6.6l-20.8-30.8c-2.3-3.5-7-4.4-10.5-2c-3.5,2.3-4.4,7-2,10.5l20.8,30.8
	c5.6,8.5,11.5,12.8,18.1,13.3c0.4,0,0.8,0,1.2,0c5.6,0,11-2.9,16.1-8.7l11.8-13.2c7.2-8.1,14.5-27.5,5.1-47.6l-8.1-17.3l29.3-33
	c8.8-9.9,7.9-25.1-2-33.9L317,147.9c-4.8-4.3-10.9-6.4-17.3-6c-6.4,0.4-12.3,3.2-16.5,8l-10.5,11.8l-8.7-18.5l19.4-17.6c0,0,0,0,0,0
	c12.9-11.7,22.2-24.5,27.5-37.5c17.7,1.5,34.8,5.3,51.3,11.2c-5.3,5.9-8.4,12.2-9.2,19c-2.1,17.3,10.8,32.7,23.3,47.5
	c17.2,20.4,24.3,31.2,15.9,42.3c-19.8,26.1-26.7,46.7-20.4,61.3c3.1,7.2,10.9,16.2,30.4,18.2c0.6,0.1,1.3,0.1,2,0.2
	c14.1,1.3,27,3.8,28.7,20.7c1.7,16.5,17.4,28.4,38.2,28.9c0.4,0,0.7,0,1.1,0c7,0,14.1-1.4,20.4-4.5c-4.6,22.3-12.9,43.2-24.1,62.2
	c-21.1-19.2-47.3-28.6-73.2-26c-21.7,2.2-39.6,12.7-49.3,28.7c-10.1,16.9-27.2,23-39.8,25.1c-21.6,3.7-42.3-1.9-49-7.4
	c-21.1-17.4-46.3-22.4-65.8-12.8c-16,7.8-26,24.1-28.6,45.6c-15.8-13.1-29.7-28.8-41.2-46.6c-2.3-3.5-6.9-4.5-10.4-2.3
	c-3.5,2.3-4.5,6.9-2.3,10.4c40.6,63,109.4,100.6,183.9,100.6c58.5,0,113.5-22.8,154.8-64.2c37.5-37.5,59.7-86.2,63.5-138.6
	c0,0,0,0,0,0c0.1-0.4,0.1-0.8,0.1-1.2C511.8,301.5,512,296.4,512,291.4L512,291.4z M294.5,159.9c1.6-1.8,3.7-2.8,6.1-2.9
	c2.4-0.1,4.6,0.6,6.4,2.2l13.2,11.8c3.7,3.3,4,8.9,0.7,12.5l-25,28.1l-16.3-35L294.5,159.9z M136.7,19.6c1.6-1.8,3.7-2.8,6.1-2.9
	c2.4-0.2,4.6,0.6,6.4,2.2l13.3,11.8c1.8,1.6,2.8,3.7,2.9,6.1c0.1,2.4-0.6,4.7-2.2,6.4l-14.8,16.7l-36.6-12.1L136.7,19.6z M35.1,81.5
	c-6.6-3.3-7.2-5.5-7.2-5.7c-0.1-0.6,0.4-2.4,3-5.3l11.8-13.2c3.7-4.2,16-11.2,30.5-6.4L148,75.7c0.1,0,0.3,0.1,0.4,0.1l25.8,8.5
	l-35.9,50.5L35.1,81.5z M19.9,207.4c-3.3-1.7-4.4-2.9-4.7-3.3c0.1-0.4,0.5-1.3,1.9-2.8l6.4-7.3c2.6-2.9,11.8-8.2,22-4.6l43.2,15.2
	l-23.1,32.5l-44.9-29.4C20.4,207.7,20.1,207.5,19.9,207.4L19.9,207.4z M163.8,294.8c4.8,9.7,0.7,19.4-2,22.4l-6.5,7.3
	c-1.3,1.5-2.2,2-2.5,2.2c-0.4-0.3-1.8-1.2-3.8-4.3c-0.2-0.3-0.4-0.5-0.6-0.8L113,280.1l30-27.2L163.8,294.8z M273.2,114.5
	l-23.3,21.1c-0.1,0.1-0.3,0.2-0.4,0.3L93.5,277.4c-4.2,3.4-8.5,5.4-12.4,5.9c-0.1,0-0.2,0-0.3,0c-3.6,0.4-7-0.6-9.7-2.9
	c-4.9-4.2-7.1-13.2-0.8-23.8l76.4-107.5c0.1-0.1,0.1-0.2,0.2-0.2l63.9-90c12-16.8,25.9-27.9,40.2-32.2c20.8-6.2,37.9-6.3,44.5-0.3
	c6.7,5.9,8.5,22.8,4.8,44.2C297.9,85.4,288.5,100.5,273.2,114.5L273.2,114.5z M471.4,322.2c-10.9-0.2-22.4-5.6-23.5-15.3
	c-3.2-30.6-30.7-33.1-42.4-34.2c-0.7-0.1-1.3-0.1-1.9-0.2c-6.7-0.7-15.3-2.8-18-9.2c-3.8-8.8,2.9-25.6,18.5-46.1
	c16.7-21.9-1.6-43.7-16.4-61.2c-10.4-12.4-21.2-25.1-19.8-35.9c0.6-4.9,3.7-9.7,9.5-14.6c5.2,2.4,10.2,4.9,15.2,7.7
	c64.3,36.1,104.2,104.3,104.2,178c0,5-0.2,9.9-0.5,14.7C494.1,318.3,481.6,322.4,471.4,322.2L471.4,322.2z M293.1,495.4
	c-42.1,0-82.1-12.9-115.6-36.1c0.1-21,7.6-36.5,20.8-43c14.1-6.9,33-2.7,49.5,10.9c12.1,10,38.4,14.6,61.1,10.7
	c15.7-2.7,37.1-10.5,50.2-32.2c7-11.7,21.2-19.7,37.9-21.5c22.3-2.3,45.1,6.3,63.3,23.8C423.3,460.8,362.2,495.4,293.1,495.4
	L293.1,495.4z"/>
<path d="M248.3,43.5c-4.2,0.3-7.2,4-6.9,8.2c0.3,4.2,4,7.3,8.2,6.9c7.6-0.6,17.6,8.6,18.6,17c0.4,3.9,3.7,6.7,7.5,6.7
	c0.3,0,0.6,0,0.8,0c4.1-0.5,7.1-4.2,6.7-8.3C281.3,57.3,264,42.2,248.3,43.5L248.3,43.5z"/>
</svg>
